<?xml version="1.0" encoding="utf-8"?>
<!-- Generator: Adobe Illustrator 27.6.1, SVG Export Plug-In . SVG Version: 6.00 Build 0)  -->
<svg version="1.1" id="Layer_1" xmlns="http://www.w3.org/2000/svg" xmlns:xlink="http://www.w3.org/1999/xlink" x="0px" y="0px"
	 viewBox="0 0 128 128" style="enable-background:new 0 0 128 128;" xml:space="preserve">
<style type="text/css">
	.st0{display:none;}
	.st1{fill:#1CE783;}
	.st2{fill:#FFFFFF;}
</style>
<g>
	<path class="st0" d="M7.7,1.07v160.09H167.8V1.07H7.7z M59.51,99.99h-8.91V84.84c0-1.34-1.07-2.42-2.39-2.42h-5.19
		c-1.32,0-2.39,1.08-2.39,2.42v15.15h-8.91V62.44h8.91v12.27c0,0,1.01-0.55,3.01-0.55h5.72c5.64,0,10.15,2.64,10.15,9.51V99.99z
		 M93.75,90.04c0,5.86-3.34,9.9-8.91,9.9v0.05h-8.73c-6.05,0-10.15-3.43-10.15-9.95V74.1h8.92v15.18c0,1.34,1.07,2.43,2.39,2.43
		h5.19c1.32,0,2.39-1.09,2.39-2.43V74.1h8.91V90.04z M109.45,99.99h-8.98V62.44h8.98V99.99z M143.99,90.04c0,5.86-3.34,9.9-8.91,9.9
		v0.05h-8.73c-6.05,0-10.15-3.43-10.15-9.95V74.1h8.91v15.18c0,1.34,1.07,2.43,2.39,2.43h5.19c1.32,0,2.39-1.09,2.39-2.43V74.1h8.91
		V90.04z"/>
	<path class="st1" d="M109.41,71.65c0,1.34-1.07,2.43-2.39,2.43h-5.19c-1.32,0-2.39-1.09-2.39-2.43V56.47h-8.91v15.94
		c0,6.52,4.1,9.95,10.15,9.95h8.73v-0.05c5.57,0,8.91-4.04,8.91-9.9V56.47h-8.91V71.65z"/>
	<rect x="74.8" y="44.81" class="st1" width="8.98" height="37.55"/>
	<path class="st1" d="M59.09,71.65c0,1.34-1.07,2.43-2.39,2.43h-5.19c-1.32,0-2.39-1.09-2.39-2.43V56.47h-8.92v15.94
		c0,6.52,4.09,9.95,10.15,9.95h8.73v-0.05c5.58,0,8.91-4.04,8.91-9.9V56.47h-8.91V71.65z"/>
	<rect x="8.36" y="44.81" class="st1" width="8.98" height="28.52"/>
	<path class="st1" d="M27.23,71.65c0,1.34-1.07,2.43-2.39,2.43h-5.19c-1.32,0-2.39-1.09-2.39-2.43V56.47H8.36v15.94
		c0,6.52,4.09,9.95,10.15,9.95h8.73v-0.05c5.58,0,8.91-4.04,8.91-9.9V56.47h-8.91V71.65z"/>
	<rect x="22.94" y="49.9" class="st2" width="17.27" height="17.27"/>
</g>
</svg>
